<svg width="36" height="40" viewBox="0 0 36 40" fill="none" xmlns="http://www.w3.org/2000/svg">
<path d="M26 1C30.9706 1 35 5.02944 35 10V30C35 34.9706 30.9706 39 26 39H10C5.02944 39 1 34.9706 1 30V10C1 5.02944 5.02944 1 10 1H26Z" fill="#2F2B52" stroke="white" stroke-width="2" stroke-linejoin="round"/>
<path d="M17.9261 19.9264C16.7412 19.9264 15.7269 19.5045 14.8831 18.6607C14.0393 17.8169 13.6174 16.8025 13.6174 15.6176C13.6174 14.4327 14.0393 13.4183 14.8831 12.5745C15.7269 11.7307 16.7412 11.3088 17.9261 11.3088C19.1111 11.3088 20.1254 11.7307 20.9692 12.5745C21.813 13.4183 22.2349 14.4327 22.2349 15.6176C22.2349 16.8025 21.813 17.8169 20.9692 18.6607C20.1254 19.5045 19.1111 19.9264 17.9261 19.9264ZM9.30859 28.5439V25.5278C9.30859 24.9174 9.46568 24.3564 9.77987 23.8447C10.094 23.333 10.5115 22.9425 11.0321 22.6732C12.1452 22.1167 13.2763 21.6993 14.4253 21.421C15.5743 21.1427 16.7412 21.0036 17.9261 21.0036C19.1111 21.0036 20.278 21.1427 21.427 21.421C22.576 21.6993 23.7071 22.1167 24.8202 22.6732C25.3408 22.9425 25.7582 23.333 26.0724 23.8447C26.3866 24.3564 26.5437 24.9174 26.5437 25.5278V28.5439H9.30859ZM11.463 26.3896H24.3893V25.5278C24.3893 25.3303 24.3399 25.1508 24.2412 24.9892C24.1425 24.8276 24.0123 24.702 23.8507 24.6122C22.8812 24.1275 21.9028 23.7639 20.9154 23.5215C19.9279 23.2792 18.9315 23.158 17.9261 23.158C16.9208 23.158 15.9244 23.2792 14.9369 23.5215C13.9495 23.7639 12.9711 24.1275 12.0016 24.6122C11.84 24.702 11.7098 24.8276 11.6111 24.9892C11.5124 25.1508 11.463 25.3303 11.463 25.5278V26.3896ZM17.9261 17.772C18.5186 17.772 19.0258 17.5611 19.4477 17.1392C19.8696 16.7173 20.0805 16.2101 20.0805 15.6176C20.0805 15.0252 19.8696 14.518 19.4477 14.0961C19.0258 13.6742 18.5186 13.4632 17.9261 13.4632C17.3337 13.4632 16.8265 13.6742 16.4046 14.0961C15.9827 14.518 15.7718 15.0252 15.7718 15.6176C15.7718 16.2101 15.9827 16.7173 16.4046 17.1392C16.8265 17.5611 17.3337 17.772 17.9261 17.772Z" fill="white"/>
</svg>
