<svg width="68" height="40" viewBox="0 0 68 40" fill="none" xmlns="http://www.w3.org/2000/svg">
<path d="M58 1C62.9706 1 67 5.02944 67 10V30C67 34.9706 62.9706 39 58 39H10C5.02944 39 1 34.9706 1 30V10C1 5.02944 5.02944 1 10 1H58Z" fill="#2F2B52" stroke="white" stroke-width="2" stroke-linejoin="round"/>
<path d="M22.9559 19.5135C21.7816 19.5135 20.7764 19.0954 19.9402 18.2592C19.104 17.423 18.6859 16.4178 18.6859 15.2436C18.6859 14.0693 19.104 13.0641 19.9402 12.2279C20.7764 11.3917 21.7816 10.9736 22.9559 10.9736C24.1301 10.9736 25.1353 11.3917 25.9715 12.2279C26.8077 13.0641 27.2258 14.0693 27.2258 15.2436C27.2258 16.4178 26.8077 17.423 25.9715 18.2592C25.1353 19.0954 24.1301 19.5135 22.9559 19.5135ZM14.416 28.0533V25.0644C14.416 24.4595 14.5717 23.9035 14.883 23.3965C15.1944 22.8894 15.608 22.5024 16.124 22.2356C17.2271 21.684 18.3479 21.2704 19.4866 20.9946C20.6252 20.7189 21.7816 20.581 22.9559 20.581C24.1301 20.581 25.2865 20.7189 26.4252 20.9946C27.5638 21.2704 28.6847 21.684 29.7878 22.2356C30.3037 22.5024 30.7174 22.8894 31.0287 23.3965C31.3401 23.9035 31.4957 24.4595 31.4957 25.0644V28.0533H14.416ZM16.551 25.9184H29.3608V25.0644C29.3608 24.8687 29.3118 24.6908 29.214 24.5307C29.1161 24.3705 28.9871 24.246 28.827 24.157C27.8663 23.6767 26.8967 23.3164 25.9181 23.0762C24.9396 22.836 23.9522 22.7159 22.9559 22.7159C21.9596 22.7159 20.9721 22.836 19.9936 23.0762C19.0151 23.3164 18.0455 23.6767 17.0847 24.157C16.9246 24.246 16.7956 24.3705 16.6978 24.5307C16.5999 24.6908 16.551 24.8687 16.551 25.0644V25.9184ZM22.9559 17.3785C23.543 17.3785 24.0456 17.1695 24.4637 16.7514C24.8818 16.3333 25.0908 15.8307 25.0908 15.2436C25.0908 14.6564 24.8818 14.1538 24.4637 13.7357C24.0456 13.3176 23.543 13.1086 22.9559 13.1086C22.3688 13.1086 21.8662 13.3176 21.4481 13.7357C21.03 14.1538 20.8209 14.6564 20.8209 15.2436C20.8209 15.8307 21.03 16.3333 21.4481 16.7514C21.8662 17.1695 22.3688 17.3785 22.9559 17.3785Z" fill="white"/>
<path d="M44.91 19.5135C43.7357 19.5135 42.7305 19.0954 41.8943 18.2592C41.0581 17.423 40.64 16.4178 40.64 15.2436C40.64 14.0693 41.0581 13.0641 41.8943 12.2279C42.7305 11.3917 43.7357 10.9736 44.91 10.9736C46.0842 10.9736 47.0894 11.3917 47.9256 12.2279C48.7618 13.0641 49.1799 14.0693 49.1799 15.2436C49.1799 16.4178 48.7618 17.423 47.9256 18.2592C47.0894 19.0954 46.0842 19.5135 44.91 19.5135ZM36.3701 28.0533V25.0644C36.3701 24.4595 36.5258 23.9035 36.8371 23.3965C37.1485 22.8894 37.5621 22.5024 38.0781 22.2356C39.1812 21.684 40.302 21.2704 41.4407 20.9946C42.5793 20.7189 43.7357 20.581 44.91 20.581C46.0842 20.581 47.2406 20.7189 48.3793 20.9946C49.5179 21.2704 50.6388 21.684 51.7419 22.2356C52.2578 22.5024 52.6715 22.8894 52.9828 23.3965C53.2942 23.9035 53.4498 24.4595 53.4498 25.0644V28.0533H36.3701ZM38.5051 25.9184H51.3149V25.0644C51.3149 24.8687 51.2659 24.6908 51.1681 24.5307C51.0702 24.3705 50.9412 24.246 50.7811 24.157C49.8204 23.6767 48.8508 23.3164 47.8722 23.0762C46.8937 22.836 45.9063 22.7159 44.91 22.7159C43.9137 22.7159 42.9262 22.836 41.9477 23.0762C40.9692 23.3164 39.9996 23.6767 39.0388 24.157C38.8787 24.246 38.7497 24.3705 38.6519 24.5307C38.554 24.6908 38.5051 24.8687 38.5051 25.0644V25.9184ZM44.91 17.3785C45.4971 17.3785 45.9997 17.1695 46.4178 16.7514C46.8359 16.3333 47.0449 15.8307 47.0449 15.2436C47.0449 14.6564 46.8359 14.1538 46.4178 13.7357C45.9997 13.3176 45.4971 13.1086 44.91 13.1086C44.3229 13.1086 43.8203 13.3176 43.4022 13.7357C42.9841 14.1538 42.775 14.6564 42.775 15.2436C42.775 15.8307 42.9841 16.3333 43.4022 16.7514C43.8203 17.1695 44.3229 17.3785 44.91 17.3785Z" fill="white"/>
</svg>
